Coordinates
version=1
nRows=6
nColumns=63
inDegrees=yes

Units are S.I. units (second, meters, Newtons, ...)
If the header above contains a line with 'inDegrees', this indicates whether rotational values are in degrees (yes) or radians (no).

endheader
time	pelvis_tilt	pelvis_list	pelvis_rotation	pelvis_tx	pelvis_ty	pelvis_tz	hip_flexion_r	hip_adduction_r	hip_rotation_r	knee_angle_r	knee_angle_r_beta	ankle_angle_r	subtalar_angle_r	mtp_angle_r	hip_flexion_l	hip_adduction_l	hip_rotation_l	knee_angle_l	knee_angle_l_beta	ankle_angle_l	subtalar_angle_l	mtp_angle_l	L5_S1_Flex_Ext	L5_S1_Lat_Bending	L5_S1_axial_rotation	L4_L5_Flex_Ext	L4_L5_Lat_Bending	L4_L5_axial_rotation	L3_L4_Flex_Ext	L3_L4_Lat_Bending	L3_L4_axial_rotation	L2_L3_Flex_Ext	L2_L3_Lat_Bending	L2_L3_axial_rotation	L1_L2_Flex_Ext	L1_L2_Lat_Bending	L1_L2_axial_rotation	L1_T12_Flex_Ext	L1_T12_Lat_Bending	L1_T12_axial_rotation	Abs_r3	Abs_r2	Abs_r1	Abs_t1	Abs_t2	neck_flexion	neck_bending	neck_rotation	arm_flex_r	arm_add_r	arm_rot_r	elbow_flex_r	pro_sup_r	wrist_flex_r	wrist_dev_r	arm_flex_l	arm_add_l	arm_rot_l	elbow_flex_l	pro_sup_l	wrist_flex_l	wrist_dev_l
      3.89200000	    -59.32777016	     -2.43343254	      4.35686580	     -0.26239747	      1.09488260	     -0.04291757	     88.87466409	    -10.36027942	    -10.73347300	     46.02134640	      0.80322402	      9.37397227	     11.24914967	      0.00000000	    127.67222635	     -5.50815898	     -0.86630295	    115.13435691	      2.00947361	     17.49725873	      5.79886973	      0.00000000	     -0.09126954	      0.45649464	     -0.61981377	     -0.16949666	      0.60713787	     -0.65855213	     -0.14994673	      1.10992107	     -0.65855213	     -0.10431196	      1.10992107	     -0.54233705	     -0.08475290	      0.93088387	     -0.50359869	     -0.05215142	      0.70711020	     -0.46486033	     -0.65192921	      5.16395868	     -3.44721825	      0.00000000	      0.00000000	      0.00000000	      0.00000000	      0.00000000	     63.28108401	    -19.78053505	     18.63819871	     51.04852181	     50.36746370	      0.00000000	      4.99967904	     62.21241463	    -18.91023529	     20.37932373	     51.57896097	     53.12108385	      0.00000000	      4.99967904
      3.90000000	    -59.37645656	     -2.43491594	      4.26146044	     -0.26244198	      1.09510950	     -0.04337015	     88.41062894	    -10.25878769	    -10.62951351	     46.27809250	      0.80770509	      9.30054592	     11.22255167	      0.00000000	    128.46472841	     -5.58526388	     -1.14788976	    114.69608960	      2.00182440	     17.60500302	      5.76970166	      0.00000000	     -0.09475068	      0.45836974	     -0.60948085	     -0.17596149	      0.60963175	     -0.64757341	     -0.15566589	      1.11448018	     -0.64757341	     -0.10829055	      1.11448018	     -0.53329575	     -0.08798548	      0.93470757	     -0.49520319	     -0.05414054	      0.71001473	     -0.45711064	     -0.67679464	      5.18517016	     -3.38974966	      0.00000000	      0.00000000	      0.00000000	      0.00000000	      0.00000000	     63.28925322	    -19.78585937	     18.63183041	     51.07234510	     50.35906390	      0.00000000	      4.99968055	     62.23579090	    -18.95439842	     20.37355221	     51.62769701	     53.11007116	      0.00000000	      4.99968055
      3.90800000	    -59.47224492	     -2.50963663	      4.13556082	     -0.26267586	      1.09522132	     -0.04400070	     88.23513144	    -10.12872891	    -10.22156443	     47.00542165	      0.82039937	      9.05560212	     11.49612467	      0.00000000	    129.24206778	     -5.56268426	     -1.31564141	    114.11835012	      1.99174095	     17.66990835	      5.61229793	      0.00000000	     -0.09177512	      0.47561843	     -0.59078145	     -0.17043558	      0.63257251	     -0.62770529	     -0.15077735	      1.15641865	     -0.62770529	     -0.10488979	      1.15641865	     -0.51693377	     -0.08522238	      0.96988110	     -0.48000993	     -0.05244031	      0.73673295	     -0.44308609	     -0.65554054	      5.38029080	     -3.28574921	      0.00000000	      0.00000000	      0.00000000	      0.00000000	      0.00000000	     63.36599546	    -19.84387126	     18.65168996	     51.21986801	     50.35299479	      0.00000000	      4.99968398	     62.15664557	    -19.02224528	     20.36960647	     51.88631246	     53.09971593	      0.00000000	      4.99968398
      3.91700000	    -59.56098331	     -2.51089581	      3.95638052	     -0.26292497	      1.09541321	     -0.04447364	     88.07719688	     -9.98404911	     -9.93391285	     47.76217000	      0.83360712	      8.98388042	     11.68207895	      0.00000000	    129.88945655	     -5.64498429	     -1.54417633	    113.39316153	      1.97908402	     17.70963049	      5.41514729	      0.00000000	     -0.09216994	      0.48157910	     -0.56736776	     -0.17116879	      0.64050021	     -0.60282825	     -0.15142599	      1.17091143	     -0.60282825	     -0.10534102	      1.17091143	     -0.49644679	     -0.08558900	      0.98203610	     -0.46098631	     -0.05266590	      0.74596603	     -0.42552582	     -0.65836063	      5.44771911	     -3.15552930	      0.00000000	      0.00000000	      0.00000000	      0.00000000	      0.00000000	     63.43617997	    -19.87072939	     18.70978440	     51.31273287	     50.35005817	      0.00000000	      4.99968753	     62.10452992	    -19.07915736	     20.27868417	     52.10043547	     53.07991629	      0.00000000	      4.99968753
      3.92500000	    -59.65591456	     -2.52840113	      3.71883316	     -0.26326050	      1.09588574	     -0.04470011	     87.88085446	     -9.76393463	     -9.80391906	     48.39744713	      0.84469480	      9.04241622	     11.63720779	      0.00000000	    130.39202812	     -5.79686719	     -1.73078920	    112.45930175	      1.96278509	     17.74747868	      5.31872385	      0.00000000	     -0.09542879	      0.48814232	     -0.53384388	     -0.17722081	      0.64922928	     -0.56720912	     -0.15677996	      1.18686923	     -0.56720912	     -0.10906557	      1.18686923	     -0.46711339	     -0.08861518	      0.99541981	     -0.43374815	     -0.05452801	      0.75613245	     -0.40038291	     -0.68163833	      5.52196353	     -2.96907951	      0.00000000	      0.00000000	      0.00000000	      0.00000000	      0.00000000	     63.52459496	    -19.85668661	     18.71632430	     51.36174497	     50.34076373	      0.00000000	      4.99968951	     62.11362584	    -19.12270347	     20.21503140	     52.19297429	     53.05985083	      0.00000000	      4.99968951
      3.93300000	    -59.72430996	     -2.53240448	      3.51827621	     -0.26361698	      1.09579902	     -0.04506230	     88.07319949	     -9.59192535	     -9.25990406	     49.89543261	      0.87083958	      9.12722597	     11.70240968	      0.00000000	    130.84088720	     -5.85309825	     -1.88290848	    111.56822664	      1.94723290	     17.78198959	      4.97587211	      0.00000000	     -0.09252294	      0.49388252	     -0.50097946	     -0.17182436	      0.65686376	     -0.53229068	     -0.15200594	      1.20082597	     -0.53229068	     -0.10574447	      1.20082597	     -0.43835703	     -0.08591681	      1.00712524	     -0.40704581	     -0.05286761	      0.76502403	     -0.37573460	     -0.66088213	      5.58689789	     -2.78629747	      0.00000000	      0.00000000	      0.00000000	      0.00000000	      0.00000000	     63.56468690	    -19.92766745	     18.76308707	     51.44007676	     50.33588255	      0.00000000	      4.99969305	     62.04167245	    -19.11041469	     20.02003767	     52.42038767	     53.02743081	      0.00000000	      4.99969305
